<?xml version="1.0" standalone="no"?>
<!DOCTYPE svg PUBLIC "-//W3C//DTD SVG 20010904//EN"
 "http://www.w3.org/TR/2001/REC-SVG-20010904/DTD/svg10.dtd">
<svg version="1.0" xmlns="http://www.w3.org/2000/svg"
 width="300" height="80" viewBox="0 0 500.000000 165.000000"
 preserveAspectRatio="xMidYMid meet">

<g transform="translate(0.000000,165.000000) scale(0.100000,-0.100000)"
fill="#000000" stroke="none">
<path d="M3156 1460 c24 -147 95 -245 310 -428 67 -57 117 -112 142 -157 27
-48 10 15 -22 80 -41 84 -108 163 -238 279 -103 92 -159 161 -183 223 l-15 38
6 -35z"/>
<path d="M2764 1404 c36 -67 99 -142 161 -194 56 -46 230 -135 345 -176 128
-45 216 -92 276 -147 55 -50 57 -50 38 -17 -31 57 -154 172 -228 215 -38 22
-141 70 -229 107 -198 83 -253 116 -330 198 l-61 65 28 -51z"/>
<path d="M2320 1206 c0 -16 162 -140 228 -174 145 -75 246 -94 612 -112 197
-10 254 -19 345 -58 l50 -22 -35 30 c-57 49 -184 110 -286 135 -53 14 -155 29
-232 35 -335 26 -380 31 -437 45 -79 21 -157 57 -206 96 -21 17 -39 28 -39 25z"/>
<path d="M3124 788 c-3 -4 0 -17 6 -28 9 -18 21 -20 95 -20 47 0 85 -2 85 -5
0 -3 -45 -73 -100 -155 -55 -82 -100 -152 -100 -155 0 -3 68 -5 150 -5 l150 0
0 25 0 25 -111 0 -110 0 106 156 c59 85 105 157 103 159 -7 7 -270 10 -274 3z"/>
<path d="M1590 778 c0 -14 139 -348 149 -360 6 -6 116 245 157 355 6 16 2 18
-21 15 -26 -3 -32 -12 -77 -128 -27 -68 -51 -126 -52 -128 -2 -2 -28 56 -57
128 -46 113 -56 130 -76 130 -13 0 -23 -6 -23 -12z"/>
<path d="M2007 783 c-4 -3 -7 -87 -7 -185 l0 -178 126 0 c124 0 125 0 122 23
-3 21 -8 22 -100 25 l-98 3 0 54 0 55 85 0 c84 0 85 0 85 25 0 25 -1 25 -85
25 l-85 0 0 55 0 55 95 0 c95 0 95 0 95 25 l0 25 -113 0 c-63 0 -117 -3 -120
-7z"/>
<path d="M2360 607 l0 -187 25 0 25 0 0 127 0 128 135 -135 135 -135 -2 190
c-3 188 -3 190 -25 193 -23 3 -23 3 -23 -130 l0 -133 -135 135 -135 135 0
-188z"/>
<path d="M2787 784 c-4 -4 -7 -16 -7 -26 0 -15 8 -18 50 -18 l50 0 0 -160 0
-160 25 0 25 0 0 160 0 160 51 0 c47 0 50 2 47 23 -3 21 -7 22 -119 25 -63 1
-118 -1 -122 -4z"/>
<path d="M1860 290 l0 -50 33 1 c30 2 30 2 5 6 -34 5 -37 30 -5 36 l22 4 -22
2 c-31 1 -31 38 0 44 19 4 18 4 -5 6 -27 1 -28 -1 -28 -49z"/>
<path d="M2060 290 l0 -50 33 1 c30 2 30 2 5 6 -34 5 -37 30 -5 36 l22 4 -22
2 c-31 1 -31 38 0 44 19 4 18 4 -5 6 -27 1 -28 -1 -28 -49z"/>
<path d="M2278 333 c7 -2 13 -25 14 -51 l1 -47 4 40 c2 22 11 46 20 53 15 10
12 12 -18 11 -19 0 -28 -3 -21 -6z"/>
<path d="M2423 290 c0 -30 2 -45 4 -34 2 12 13 24 24 27 25 7 26 47 2 46 -11
0 -13 -3 -5 -6 17 -7 15 -33 -2 -33 -8 0 -17 12 -19 28 -2 15 -4 2 -4 -28z"/>
<path d="M2708 327 c6 -7 12 -30 15 -52 l4 -40 1 47 c1 26 7 49 15 51 6 3 -1
6 -17 6 -22 1 -26 -2 -18 -12z"/>
<path d="M2791 288 c1 -29 4 -43 6 -31 2 13 13 24 26 26 l22 4 -22 2 c-16 1
-23 7 -23 20 0 12 8 21 23 24 19 4 18 4 -5 6 -27 1 -28 0 -27 -51z"/>
<path d="M2890 322 c-18 -14 -21 -25 -16 -45 7 -31 48 -46 71 -27 22 18 19 67
-4 80 -25 13 -25 13 -51 -8z m48 -4 c19 -19 14 -56 -8 -63 -41 -13 -69 43 -32
64 22 13 26 13 40 -1z"/>
<path d="M3001 288 c1 -29 4 -43 6 -30 2 12 8 22 12 22 5 0 16 -10 24 -22 9
-13 16 -18 16 -11 1 6 -4 15 -9 18 -8 5 -7 11 1 21 13 16 5 44 -12 44 -8 0 -9
-4 0 -13 12 -15 5 -27 -17 -27 -10 0 -12 7 -8 25 4 14 2 25 -4 25 -6 0 -9 -23
-9 -52z"/>
<path d="M1951 328 c-1 -4 6 -26 15 -48 l17 -41 19 42 c10 23 16 44 14 47 -3
2 -11 -11 -19 -29 l-14 -34 -16 35 c-8 19 -16 32 -16 28z"/>
<path d="M2152 284 c1 -36 2 -40 5 -16 5 39 9 39 45 5 l28 -27 -2 45 c-1 38
-2 40 -5 10 l-4 -34 -35 34 -34 33 2 -50z"/>
<path d="M2502 288 l-2 -48 33 1 c29 2 29 2 5 6 -24 4 -27 10 -31 46 l-4 42
-1 -47z"/>
<path d="M2620 324 c0 -5 5 -15 12 -22 6 -6 8 -15 4 -19 -4 -4 -11 -2 -15 5
-5 9 -11 5 -19 -13 -15 -32 -15 -47 -1 -22 5 9 17 17 26 17 9 0 22 -8 30 -17
10 -14 10 -8 -2 22 -17 41 -35 67 -35 49z"/>
<path d="M3102 285 c0 -30 3 -39 5 -22 4 27 6 28 23 12 17 -15 19 -15 33 6 15
21 16 21 20 -12 3 -27 4 -23 5 15 l2 50 -24 -32 -24 -33 -21 33 -21 33 2 -50z"/>
</g>
</svg>
